# xmcd CD database file
#
# Track frame offsets:
#	150
#	16607
#	45407
#	64540
#	88362
#	108795
#	135607
#	156275
#	174247
#	191032
#	209420
#	234447
#	256597
#	275220
#	293987
#
# Disc length: 4214 seconds
#
# Revision: 0
# Processed by: cddbd v1.5.1PL0 Copyright (c) Steve Scherf et al.
# Submitted via: CDex 1.51
#
DISCID=cc10740f
DTITLE=Various Artist - TV Generation 日テレ Golden Best (Disc3)
DYEAR=1900
DGENRE=ポップ (一般)
TTITLE0=B.B.クイーンズ/ドレミファだいじょーぶ（はじめてのおつかい）
TTITLE1=国武万理/ポケベルが鳴らなくて（ポケベルが鳴らなくて）
TTITLE2=森高千里/私がオバさんになっても(シングル・ヴァージョン)（まったナシ!）
TTITLE3=藤谷美和子・大内義昭/愛が生まれた日（そのうち結婚する君へ）
TTITLE4=牧原敬之/もう恋なんてしない（子どもが寝たあとで）
TTITLE5=今井美樹/Miss You（禁断の果実）
TTITLE6=山田晃士/ひまわり（横浜心中）
TTITLE7=coba/deja vu がにげる頃（おしゃれカンケイ）
TTITLE8=酒井法子/碧いうさぎ（星の金貨）
TTITLE9=猿岩石/白い雲のように（進め!電波少年）
TTITLE10=憲三郎&ジョージ山本/浪漫-ROMAN（とんねるずの生でダラダラいかせて!!）
TTITLE11=ポケットビスケッツ/Power（ウッチャンナンチャンのウリナリ!!）
TTITLE12=シャ乱Q/空を見なよ（'95劇空間プロ野球）
TTITLE13=ブラック・ビスケッツ/STAMINA（ウッチャンナンチャンのウリナリ!!）
TTITLE14=Something Else/ラストチャンス（雷波少年）
EXTD=
EXTT0=
EXTT1=
EXTT2=
EXTT3=
EXTT4=
EXTT5=
EXTT6=
EXTT7=
EXTT8=
EXTT9=
EXTT10=
EXTT11=
EXTT12=
EXTT13=
EXTT14=
PLAYORDER=
